<mxfile host="app.diagrams.net" modified="2023-10-06T07:56:23.501Z" agent="Mozilla/5.0 (Windows NT 10.0; Win64; x64) AppleWebKit/537.36 (KHTML, like Gecko) Chrome/117.0.0.0 Safari/537.36" etag="8sMyZzsTWvZiaddUSQUb" version="22.0.3" type="github">
  <diagram name="Страница — 1" id="DNMvd5dhDP0ZgoRwr1V2">
    <mxGraphModel dx="1075" dy="552" grid="1" gridSize="10" guides="1" tooltips="1" connect="1" arrows="1" fold="1" page="1" pageScale="1" pageWidth="827" pageHeight="1169" math="0" shadow="0">
      <root>
        <mxCell id="0" />
        <mxCell id="1" parent="0" />
        <mxCell id="37RLYazfFerKv1l8wogr-28" value="Создание заказа" style="rounded=0;whiteSpace=wrap;html=1;" vertex="1" parent="1">
          <mxGeometry x="160" y="200" width="120" height="120" as="geometry" />
        </mxCell>
        <mxCell id="37RLYazfFerKv1l8wogr-29" value="Выполнение заказа" style="rounded=0;whiteSpace=wrap;html=1;" vertex="1" parent="1">
          <mxGeometry x="320" y="360" width="120" height="120" as="geometry" />
        </mxCell>
        <mxCell id="37RLYazfFerKv1l8wogr-30" value="Контроль заказа" style="rounded=0;whiteSpace=wrap;html=1;" vertex="1" parent="1">
          <mxGeometry x="480" y="520" width="120" height="120" as="geometry" />
        </mxCell>
      </root>
    </mxGraphModel>
  </diagram>
</mxfile>
